<!-- icon666.com - MILLIONS vector ICONS FREE --><svg version="1.1" id="Capa_1" xmlns="http://www.w3.org/2000/svg" xmlns:xlink="http://www.w3.org/1999/xlink" x="0px" y="0px" viewBox="0 0 512 512" style="enable-background:new 0 0 512 512;" xml:space="preserve"><g><g><path d="M103.035,410.484c6.845-8.387,10.958-19.086,10.958-30.73c0-26.844-21.839-48.683-48.683-48.683 s-48.683,21.839-48.683,48.683c0,11.644,4.114,22.343,10.958,30.73C10.911,422.329,0,441.782,0,463.748V512h130.622v-48.252 C130.622,441.782,119.711,422.329,103.035,410.484z" fill="#000000" style="fill: rgb(255, 255, 255);"></path></g></g><g><g><path d="M293.724,410.484c6.845-8.387,10.958-19.086,10.958-30.73c0-26.844-21.839-48.683-48.683-48.683 s-48.683,21.839-48.683,48.683c0,11.644,4.114,22.343,10.958,30.73c-16.675,11.845-27.587,31.298-27.587,53.264V512h130.622 v-48.252C321.311,441.782,310.399,422.33,293.724,410.484z" fill="#000000" style="fill: rgb(255, 255, 255);"></path></g></g><g><g><path d="M293.725,79.412c6.845-8.387,10.958-19.086,10.958-30.73C304.683,21.839,282.844,0,256,0s-48.683,21.839-48.683,48.683 c0,11.644,4.114,22.343,10.958,30.73c-16.675,11.845-27.587,31.298-27.587,53.264v48.252H321.31v-48.253h0.001 C321.311,110.71,310.4,91.257,293.725,79.412z" fill="#000000" style="fill: rgb(255, 255, 255);"></path></g></g><g><g><path d="M484.413,410.485c6.845-8.387,10.959-19.086,10.959-30.73c0-26.844-21.839-48.683-48.683-48.683 s-48.683,21.839-48.683,48.683c0,11.644,4.114,22.343,10.958,30.729c-16.675,11.845-27.587,31.298-27.587,53.264V512H512v-48.252 C512,441.783,501.089,422.33,484.413,410.485z" fill="#000000" style="fill: rgb(255, 255, 255);"></path></g></g><g><g><polygon points="271,241 271,210.964 241,210.964 241,241 50.311,241 50.311,301.036 80.311,301.036 80.311,271 241,271 241,301.036 271,301.036 271,271 431.689,271 431.689,301.036 461.689,301.036 461.689,241 " fill="#000000" style="fill: rgb(255, 255, 255);"></polygon></g></g></svg>