<svg xmlns="http://www.w3.org/2000/svg" version="1.1" style="" viewBox="16.48 38.57 119.75 40.87"> <rect id="backgroundrect" width="100%" height="100%" x="0" y="0" fill="none" stroke="none" style="" class=""/><g class="currentLayer" style=""><title>Layer 1</title><path fill="#ffce31" d="M61.526265107390785,20.81273283373841 l-2.7867047242702534,2.475814957007805 L56.8507938477818,20.81273283373841 l-3.0653751966972798,34.067213808427375 h3.220192125823404 L54.18794266681245,80.23229180192567 l6.935798424850409,-34.067213808427375 H56.94368400525747 z" class="" transform="rotate(-106.08234405517578 57.65584182739258,50.52251052856446) " id="svg_6"/><polyline fill="none" stroke="#ffce31" stroke-width="3" stroke-dashoffset="" fill-rule="nonzero" marker-start="" marker-mid="" marker-end="" id="svg_3" points="30.33333333333333,57.70000203450521 30.166666666666657,57.70000203450521 30,57.70000203450521 29.666666666666657,57.53333536783853 29.5,57.53333536783853 29.33333333333333,57.53333536783853 29.166666666666657,57.53333536783853 29,57.53333536783853 28.166666666666657,57.53333536783853 27.166666666666657,57.53333536783853 26.166666666666657,57.866668701171875 25.33333333333333,58.20000203450521 24.33333333333333,58.53333536783853 23.33333333333333,58.866668701171875 22.83333333333333,59.20000203450521 22,59.866668701171875 21.166666666666657,60.53333536783853 20.5,61.03333536783853 20,61.53333536783853 19.666666666666657,62.03333536783853 19.33333333333333,63.03333536783853 19.166666666666657,64.03333536783853 19.166666666666657,64.86666870117188 19.166666666666657,65.86666870117188 19.166666666666657,67.2000020345052 19.5,68.7000020345052 20,70.03333536783853 20.666666666666657,71.53333536783853 21.166666666666657,72.2000020345052 21.666666666666657,72.86666870117188 22.33333333333333,73.2000020345052 23,73.53333536783853 23.83333333333333,73.86666870117188 25,74.2000020345052 26.33333333333333,74.36666870117188 27.5,74.53333536783853 29.166666666666657,74.53333536783853 30.83333333333333,74.53333536783853 32.83333333333333,74.2000020345052 34.5,73.7000020345052 36,73.03333536783853 37,72.53333536783853 38,72.03333536783853 38.83333333333333,71.2000020345052 39.83333333333333,70.53333536783853 40.66666666666666,69.86666870117188 41.33333333333333,69.2000020345052 42,68.53333536783853 42.5,67.86666870117188 43.16666666666666,67.2000020345052 44,66.36666870117188 44.833333333333336,65.36666870117188 45.66666666666666,64.36666870117188 46.5,63.70000203450521 47.333333333333336,63.20000203450521 47.833333333333336,62.70000203450521 48.5,62.366668701171875 49.333333333333336,62.03333536783853 50.16666666666666,61.70000203450521 51.16666666666666,61.366668701171875 52.16666666666666,61.366668701171875 52.833333333333336,61.20000203450521 53.66666666666666,61.20000203450521 54.5,61.20000203450521 55.5,61.20000203450521 55.833333333333336,61.20000203450521 56.333333333333336,61.20000203450521 56.5,61.20000203450521 56.833333333333336,61.20000203450521 57.333333333333336,61.366668701171875 58,61.53333536783853 58.66666666666666,61.70000203450521 59.16666666666666,61.866668701171875 59.66666666666666,62.20000203450521 60.5,62.53333536783853 61.16666666666666,63.20000203450521 62,63.70000203450521 63,64.03333536783853 63.5,64.36666870117188 64,64.53333536783853 64.16666666666666,64.86666870117188 64.66666666666666,65.53333536783853 65.33333333333331,66.36666870117188 65.83333333333331,67.2000020345052 66.5,68.36666870117188 67.16666666666666,69.2000020345052 67.66666666666666,70.03333536783853 68.16666666666666,70.53333536783853 68.66666666666666,71.36666870117188 69.16666666666666,72.03333536783853 70,72.86666870117188 70.66666666666666,73.7000020345052 71,74.03333536783853 71.33333333333331,74.2000020345052 71.5,74.36666870117188 71.66666666666666,74.36666870117188 71.66666666666666,74.53333536783853 72.5,75.03333536783853 73,75.36666870117188 74,75.7000020345052 75.5,75.86666870117188 77.5,75.86666870117188 80,75.86666870117188 82.33333333333331,75.86666870117188 84.66666666666666,75.86666870117188 86.66666666666667,75.86666870117188 88.66666666666667,75.53333536783853 90,75.36666870117188 91.33333333333331,75.03333536783853 92.5,75.03333536783853 93.66666666666667,75.03333536783853 94.16666666666667,75.03333536783853 " style="color: rgb(188, 180, 22);" class="" stroke-opacity="1"/><path fill="#5659b3" d="M16.491231739521027,44.50537516537588 q-0.0488281250000001,-0.5754213227191947 0.0781250000000002,-0.9999124624300748 t0.5078124999999992,-0.69805209641345 t1.220703125,-0.2735609567025678 l3.14453125,0 q0.6445312500000008,0 1.689453125,0.06603195506613718 t2.24609375,0.19809586519841133 t2.392578125,0.4056248668348428 t2.177734375,0.6791858235374105 t1.6015625,0.9999124624300748 t0.615234375,1.4055373292649165 q0,1.150842645438388 -0.6933593750000008,2.1601882443064824 t-1.73828125,1.8205953325377777 t-2.20703125,1.4432698750169948 t-2.080078125,1.1414095090003684 q3.6328125,0.7735171879176034 5.68359375,3.207266388926655 t2.05078125,6.0749398660846055 q0,1.924359833355993 -0.7617187500000008,3.801553984521888 t-2.080078125,3.386495981249027 t-3.125,2.43374920100905 t-3.876953125,0.9244473709259177 q-0.2734375,0 -0.615234375,-0.05659881862811762 t-0.6250000000000008,-0.17922959232237212 t-0.48828125,-0.34902604820672467 t-0.205078125,-0.5848544591572136 q0,-1.660232013091445 1.85546875,-1.660232013091445 q0.3125000000000004,0 0.7324218750000008,0.08489822794217629 t0.6542968750000008,0.34902604820672467 q1.07421875,-0.4339242761489011 1.962890625,-1.3772379199508578 t1.50390625,-2.103589425678365 t0.9570312500000008,-2.43374920100905 t0.3417968750000008,-2.3111184273147956 q0,-1.2451740098185837 -0.3808593750000008,-2.5375137018272627 t-1.103515625,-2.3960166552569717 t-1.77734375,-1.858327878289856 t-2.421875,-0.9433136438019561 q-0.3515625000000004,-0.0377325457520783 -0.7714843749999992,-0.05659881862811762 l-0.8398437500000008,-0.0377325457520783 t-0.8203124999999992,-0.11319763725623512 t-0.6933593750000008,-0.30186036601662686 q0.15625000000000022,3.1318012974224985 0.4003906250000004,6.244736321968958 t0.6542968750000008,6.244736321968958 q0.15625000000000022,0.15093018300831343 0.21484375000000022,0.4433574125869203 t0.09765625000000028,0.622587004909292 t0.03906250000000005,0.6320201413473115 l0,0.509389367653057 q0,0.3395929117687053 -0.234375,0.556555049843155 t-0.5566406250000008,0.34902604820672467 t-0.6835937500000008,0.1697964558843528 t-0.6347656250000008,0.0377325457520783 q-0.8789062500000008,0 -1.34765625,-0.22639527451247024 t-0.6640625,-0.6603195506613712 t-0.25390625,-0.9904793259920539 t-0.09765625000000028,-1.216874600504525 q-0.52734375,-5.263690132414922 -0.7617187500000008,-10.41418262757361 t-0.234375,-10.41418262757361 q0,-0.622587004909292 -0.0488281250000001,-1.1980083276284859 zM20.094747364521027,43.70355856814422 q0,2.320551563752815 0.15625000000000022,4.65053626394365 t0.2734375,4.65053626394365 q0.8789062500000008,-0.509389367653057 2.3046875,-1.1980083276284859 t2.763671875,-1.5187349665211514 t2.294921875,-1.8300284689757973 t0.9570312500000008,-2.169621380744502 q0,-0.9244473709259177 -1.1328125,-1.4055373292649165 t-2.63671875,-0.7169183692894876 t-2.939453125,-0.2924272295786072 t-2.041015625,-0.1697964558843528 zM37.15861455202102,47.2126853230875 q0,-0.8867148251738408 0.0488281250000001,-1.7545633774716407 t0.16601562500000022,-1.7168308317195624 q0.0781250000000002,-0.4339242761489011 0.6933593750000008,-0.622587004909292 t1.025390625,-0.18866272876039167 l0.46875,0.0377325457520783 q0.56640625,0.07546509150415662 1.142578125,-0.07546509150415662 t1.142578125,-0.15093018300831343 q1.328125,0 2.96875,0.2829940931405873 t3.076171875,0.9621799166779976 t2.412109375,1.7828627867856994 t0.9765624999999984,2.726176430587657 t-1.015625,3.028036796604283 t-2.55859375,2.4714817467611283 t-3.3203125,1.6696651495294645 t-3.26171875,0.6037207320332537 q0.15625000000000022,3.6411906650755554 0.4394531250000004,7.2257825115229934 t0.9667968750000008,7.169183692894876 l0.03906250000000005,0.24526154738850892 q0,0.26412782026454845 -0.244140625,0.4339242761489011 t-0.5761718750000008,0.2735609567025678 t-0.6738281250000008,0.14149704657029413 t-0.5566406250000008,0.0377325457520783 q-0.48828125,0 -1.181640625,-0.17922959232237212 t-0.8496093750000008,-0.7074852328514681 q-0.4492187500000004,-1.660232013091445 -0.7031250000000008,-3.6506238015135777 t-0.37109375,-4.160013169166632 t-0.16601562500000022,-4.367542170803063 t-0.0488281250000001,-4.292077079298906 l0,-4.244911397108808 q0,-0.69805209641345 -0.019531250000000024,-1.4527030114550143 t-0.019531250000000024,-1.528168102959171 zM40.85002080202102,44.15634911716916 q0,2.584679384017363 0.0585937500000001,5.159925631596707 t0.13671875000000022,5.159925631596707 q1.15234375,-0.22639527451247024 2.353515625,-0.8018165972316631 t2.16796875,-1.3678047835128386 t1.5625,-1.8017290596617386 t0.595703125,-2.122455698554404 q0,-0.9999124624300748 -0.5175781249999992,-1.792295923223719 t-1.337890625,-1.3583716470748186 q-0.8007812500000008,-0.5471219134051362 -1.81640625,-0.8489822794217615 q-0.8984375,-0.26412782026454845 -1.7578125,-0.26412782026454845 l-0.21484375000000022,0 zM55.316231739521015,68.0787831239868 q-0.019531250000000024,-0.5659881862811746 -0.019531250000000024,-1.1319763725623488 q0,-1.7734296503476799 0.19531250000000022,-3.5657255735713997 q0.234375,-2.3771503823809326 0.3125000000000004,-4.6788356732577085 q0.0781250000000002,-2.697877021273598 0.234375,-5.603283044183627 q0.09765625000000028,-1.5847669215872884 0.09765625000000028,-3.1318012974224985 q0,-1.2640402826946229 -0.0585937500000001,-2.5092142925132066 q0.19531250000000022,-0.4339242761489011 0.5175781249999992,-0.5848544591572136 t0.810546875,-0.15093018300831343 q0.234375,0 0.4980468750000008,0.0377325457520783 t0.4589843750000008,0.18866272876039167 q0.2734375,0.0377325457520783 0.6738281250000008,0.07546509150415662 t0.615234375,0.22639527451247024 q0.0781250000000002,0.11319763725623512 0.4003906250000004,0.7735171879176034 t0.7617187500000008,1.6036331944633275 t0.91796875,2.0469906070502475 t0.91796875,2.0941562892403454 t0.7617187500000008,1.7451302410336211 t0.4003906250000004,0.9433136438019561 q1.8359375,-3.207266388926655 3.59375,-6.593762370175682 t3.84765625,-6.386233368539251 q0.19531250000000022,-0.26412782026454845 0.6738281250000008,-0.3867585939588034 t0.791015625,-0.12263077369425454 q0.8398437500000008,0 1.220703125,0.3867585939588034 t0.4980468750000008,0.9904793259920539 q0.0781250000000002,0.37732545752078334 0.09765625000000028,0.8112497336696848 q0.019531250000000024,0.22639527451247024 -0.019531250000000024,0.4716568219009791 q-0.0781250000000002,0.69805209641345 -0.0781250000000002,1.3206391013227403 q0,4.395841580117121 -0.3125000000000004,8.725651205168106 t-0.56640625,8.744517478044145 q-0.03906250000000005,0.9055810980498796 -0.03906250000000005,1.8866272876039147 t0.03906250000000005,2.037557470612228 q0.019531250000000024,0.37732545752078334 0.019531250000000024,0.7357846421655281 q0,1.660232013091445 -0.2929687500000004,3.09406875167042 q-0.2734375,0.4339242761489011 -0.8984375,0.5471219134051362 t-1.0546875,0.11319763725623512 q-0.91796875,0 -1.7578125,-0.415058003272862 l-0.21484375000000022,-0.24526154738850892 l-0.0781250000000002,-0.30186036601662686 t-0.03906250000000005,-0.30186036601662686 q0,-2.7356095670256764 0.205078125,-5.508951679803431 t0.4589843750000008,-5.53725108911749 t0.537109375,-5.518384816241451 t0.4785156250000004,-5.508951679803431 q-1.15234375,1.8488947418518364 -2.236328125,3.7638214387698117 t-2.041015625,3.895885348902084 q-0.3515625000000004,0.7735171879176034 -0.6738281250000008,1.660232013091445 t-0.7714843749999992,1.5847669215872884 q-0.234375,0.3395929117687053 -0.791015625,0.415058003272862 t-0.9667968750000008,0.07546509150415662 q-0.3906250000000004,0 -0.810546875,-0.13206391013227428 t-0.5761718750000008,-0.5659881862811746 q-0.7226562500000008,-2.1318888349924237 -1.54296875,-4.1694463056046525 t-1.66015625,-4.131713759852573 q0,1.3961041928268971 0.0585937500000001,3.6128912557614967 t0.0585937500000001,4.593937445315532 t-0.0781250000000002,4.5467717631254345 t-0.37109375,3.433661663439125 q-0.0781250000000002,0.4716568219009791 -0.6347656250000008,0.5848544591572136 t-0.9667968750000008,0.11319763725623512 q-0.3125000000000004,0 -0.595703125,-0.0377325457520783 t-0.5566406250000008,-0.15093018300831343 zM78.55197392702104,67.96558548673056 q0.1171875000000001,-3.056336205918342 0.205078125,-6.263602594844997 t0.16601562500000022,-6.329634549911134 t0.1171875000000001,-6.065506729646586 t0.03906250000000005,-5.490085406927392 q0.03906250000000005,-0.509389367653057 0.91796875,-0.8112497336696848 t2.099609375,-0.4433574125869203 t2.578125,-0.17922959232237212 t2.412109375,-0.0377325457520783 q0.234375,0 0.9765624999999984,-0.018866272876039147 l0.37109375,0 q0.56640625,0 1.19140625,0.0377325457520783 q0.8203124999999992,0.05659881862811762 1.435546875,0.24526154738850892 t0.615234375,0.5471219134051362 q0,0.26412782026454845 -0.21484375000000022,0.42449113971088087 t-0.4980468750000008,0.23582841095048934 t-0.5859375,0.09433136438019579 t-0.4199218750000008,0.018866272876039147 q-1.8359375,0 -3.6328125,-0.05659881862811762 q-0.48828125,-0.018866272876039147 -0.99609375,-0.018866272876039147 q-1.328125,0 -2.6953125,0.11319763725623512 q0.0781250000000002,0.22639527451247024 0.126953125,1.3678047835128386 t0.0488281250000001,2.5752462475793436 t-0.019531250000000024,2.8016415220918134 t0,2.103589425678365 l0,4.905230947770178 q0.60546875,-0.0377325457520783 1.19140625,-0.0377325457520783 l1.171875,0 l0.78125,-0.0377325457520783 q0.3906250000000004,-0.018866272876039147 0.8203124999999992,-0.018866272876039147 q0.4492187500000004,0 0.91796875,0.018866272876039147 q0.9375,0.0377325457520783 1.708984375,0.21696213807445053 t0.7714843749999992,0.6320201413473115 q0,0.3395929117687053 -0.2929687500000004,0.4999562312150376 t-0.6542968750000008,0.23582841095048934 t-0.6835937500000008,0.07546509150415662 l-0.3613281250000008,0 q-1.11328125,0 -2.314453125,-0.07546509150415662 t-2.236328125,-0.07546509150415662 q-0.19531250000000022,0.07546509150415662 -0.4199218750000008,0.05659881862811762 t-0.4003906250000004,-0.018866272876039147 q0,2.829940931405872 -0.0585937500000001,5.6315824534976855 t-0.13671875000000022,5.574983634869568 q0,0.5471219134051362 -0.7128906250000008,0.7169183692894876 t-1.357421875,0.1697964558843528 q-0.7226562500000008,0 -1.142578125,-0.1697964558843528 t-0.595703125,-0.556555049843155 t-0.21484375000000022,-1.0282118717441335 q-0.019531250000000024,-0.3584591846447442 -0.03906250000000005,-0.7923834607936433 q0,-0.3584591846447442 0.019531250000000024,-0.7735171879176034 zM94.48302861452103,70.79552641813643 q0,-0.5471219134051362 0.0488281250000001,-1.150842645438388 t0.0878906250000002,-1.1319763725623488 l0.1171875000000001,-2.829940931405872 q0.19531250000000022,-3.3959291176870465 0.4785156250000004,-6.678660598117858 t0.4785156250000004,-6.64092805236578 q0.1171875000000001,-1.8488947418518364 0.17578125000000022,-3.631757528637536 t0.17578125000000022,-3.631757528637536 q-0.0781250000000002,-0.15093018300831343 -0.0781250000000002,-0.20752900163643087 q0,-0.26412782026454845 0.205078125,-0.415058003272862 t0.4785156250000004,-0.25469468382652855 t0.5761718750000008,-0.14149704657029413 t0.4589843750000008,-0.0377325457520783 l0.4492187500000004,0 q0.60546875,0.07546509150415662 0.8789062500000008,0.3678923210827641 t0.3515625000000004,0.69805209641345 t0.03906250000000005,0.8678485522978021 t-0.03906250000000005,0.8584154158597816 q0,2.7356095670256764 -0.13671875000000022,5.574983634869568 t-0.3125000000000004,5.6976144085638225 t-0.3222656250000004,5.716480681439862 t-0.14648437500000022,5.6504487263737255 l0,1.3206391013227403 q0,0.8867148251738408 -0.5175781249999992,1.1697089183144271 t-1.435546875,0.2829940931405873 q-0.8007812500000008,0 -1.40625,-0.3395929117687053 t-0.60546875,-1.1131100996863097 zM103.05080205202103,64.45645873178728 q0,-1.0753775539342314 0.283203125,-2.2167870629346 t0.8984375,-2.056423743488267 t1.552734375,-1.4904355572070926 t2.265625,-0.5754213227191947 q0.99609375,0 2.099609375,0.330159775330686 t2.021484375,0.9433136438019561 t1.494140625,1.4998686936451122 t0.5761718750000008,1.9809586519841105 q0,1.3206391013227403 -0.4980468750000008,2.5092142925132066 t-1.3964843750000004,2.122455698554404 t-2.099609375,1.4715692843310535 t-2.607421875,0.5376887769671158 q-1.15234375,0 -2.01171875,-0.4056248668348428 t-1.435546875,-1.084810690372251 t-0.8593750000000008,-1.6036331944633275 t-0.283203125,-1.9620923791080713 zM105.92189580202103,64.4187261860352 q0,0.3395929117687053 0.1074218750000001,0.9999124624300748 t0.3222656250000004,1.2923396920086816 t0.5566406250000008,1.0942438268102705 t0.830078125,0.42449113971088087 q1.03515625,-0.11319763725623512 1.708984375,-0.6508864142233515 t1.09375,-1.3112059648847207 t0.5859375,-1.6790982859674841 t0.16601562500000022,-1.7168308317195624 q0,-1.037645008182153 -0.4199218750000008,-1.7356971045956016 t-1.376953125,-1.1319763725623488 q0,0.0377325457520783 0.03906250000000005,0.0377325457520783 t0.03906250000000005,-0.0377325457520783 l-0.48828125,-0.11319763725623512 q-0.19531250000000022,-0.07546509150415662 -0.4785156250000004,-0.1697964558843528 t-0.5566406250000008,-0.415058003272862 q-0.7617187500000008,0.26412782026454845 -1.181640625,0.6791858235374105 t-0.6347656250000008,1.0093455988680944 t-0.2636718750000004,1.4244036021409556 t-0.0488281250000001,1.9998249248601496 zM117.88810673952102,65.60730137722567 q0,-0.69805209641345 0.029296875000000024,-2.0469906070502475 t0.205078125,-2.745042703463696 t0.5761718750000008,-2.5280805653892457 t1.201171875,-1.4527030114550143 q0.19531250000000022,-0.07546509150415662 0.6347656250000008,-0.13206391013227428 t0.8789062500000008,-0.0377325457520783 t0.78125,0.15093018300831343 t0.3417968750000008,0.49052309477701805 q0,0.07546509150415662 -0.0781250000000002,0.20752900163643087 t-0.41015625,0.415058003272862 q-0.60546875,1.6224994673393667 -0.7421875,3.226132661802694 t-0.13671875000000022,3.3015977533068512 q0,0.9999124624300748 0.068359375,1.9998249248601496 t0.22460937500000022,2.0186911977361888 q0.3125000000000004,-0.4339242761489011 0.6347656250000008,-1.3017728284467012 t0.6835937500000008,-1.8960604240419343 t0.7421875,-2.0847231528023262 t0.8593750000000008,-1.924359833355993 t1.0546875,-1.4338367385789752 t1.298828125,-0.5659881862811746 q0.8007812500000008,0 1.337890625,0.9716130531160161 t0.99609375,2.2450864722486585 t0.8593750000000008,2.584679384017363 t0.9667968750000008,2.009258061298169 q0.2734375,-0.26412782026454845 0.4394531250000004,-0.6886189599754297 t0.2636718750000004,-0.9150142344878986 t0.1171875000000001,-0.9716130531160161 t0.019531250000000024,-0.820682870107703 q0,-0.8489822794217615 -0.2636718750000004,-1.8394616054138169 t-0.5566406250000008,-1.858327878289856 t-0.5566406250000008,-1.462136147893034 t-0.2636718750000004,-0.6886189599754297 q0,-0.15093018300831343 0.16601562500000022,-0.24526154738850892 t0.3808593750000008,-0.15093018300831343 t0.4394531250000004,-0.07546509150415662 t0.3417968750000008,-0.018866272876039147 q0.7226562500000008,0 1.240234375,0.7735171879176034 t0.8203124999999992,1.792295923223719 t0.4394531250000004,2.0658568799262866 t0.13671875000000022,1.6319326037773862 q0,0.7357846421655281 -0.1171875000000001,1.5659006487112492 t-0.4394531250000004,1.5376012393971918 t-0.947265625,1.1791420547524467 t-1.58203125,0.4716568219009791 q-1.15234375,0 -1.89453125,-0.622587004909292 t-1.201171875,-1.5093018300831318 t-0.7226562500000008,-1.9337929697940126 t-0.4980468750000008,-1.8960604240419343 q-0.4492187500000004,0.9999124624300748 -0.8203124999999992,2.5280805653892457 t-0.9375,2.9997373872902244 t-1.4453125,2.5092142925132066 t-2.28515625,1.037645008182153 t-2.001953125,-0.6697526870993908 t-0.947265625,-1.8394616054138169 l0.03906250000000005,0.0377325457520783 q-0.234375,-0.8489822794217615 -0.3027343750000004,-1.6979645588435237 t-0.068359375,-1.6979645588435237 z" id="svg_1" class=""/><path fill="#" d="" id="svg_2" class=""/><path fill="none" fill-opacity="1" stroke="#ffce31" stroke-opacity="1" stroke-width="3" stroke-dasharray="none" stroke-linejoin="miter" stroke-linecap="butt" stroke-dashoffset="" fill-rule="nonzero" opacity="1" marker-start="" marker-mid="" marker-end="" d="M93.33333333830039,75.03333536783855 L104.66666667163372,75.2000020345052 " id="svg_4" class=""/><path fill="#ffce31" d="M122.71579835179011,59.64252231558419 l-2.195422958156573,1.3763229801831784 L119.03236649977187,59.64252231558419 l-2.4149652539722304,18.938204207320528 h2.536933196092039 L116.93451789531115,92.67427383998044 l5.464163806967469,-18.938204207320528 H119.10554726504373 z" class="" id="svg_5" transform="rotate(-89.19776153564453 119.66659545898438,76.15839385986328) "/></g></svg>